# xmcd
#
# Track frame offsets: 
#        150
#        17407
#        31607
#        44020
#        64212
#        77765
#        90975
#        104887
#        120740
#        134505
#        145907
#        163472
#
# Disc length: 2470 seconds
#
# Revision: 1
# Processed by: cddbd v1.5.2PL0 Copyright (c) Steve Scherf et al.
# Submitted via: ExactAudioCopy v1.1
#
DISCID=a609a40c
DTITLE=Janie Fricke - Crossroads - Hymns Of Faith
DYEAR=1992
DGENRE=Country
TTITLE0=Ten Thousand Angels
TTITLE1=The Old Rugged Cross
TTITLE2=Take My Hand, Precious Lord
TTITLE3=Tears In Heaven
TTITLE4=People Get Ready
TTITLE5=I Believe
TTITLE6=Why Me Lord
TTITLE7=Sweet Little Jesus Boy
TTITLE8=Elijah Rock
TTITLE9=Swing Low Sweet Chariot
TTITLE10=Were You There
TTITLE11=Amazing Grace
EXTD=
EXTT0=
EXTT1=
EXTT2=
EXTT3=
EXTT4=
EXTT5=
EXTT6=
EXTT7=
EXTT8=
EXTT9=
EXTT10=
EXTT11=
PLAYORDER=
